# xmcd
#
# Track frame offsets: 
#        150
#        15594
#        33289
#        49711
#        71587
#        80923
#        99680
#        114620
#        129232
#        146021
#        157451
#
# Disc length: 2315 seconds
#
# Revision: 0
# Processed by: cddbd v1.5.2PL0 Copyright (c) Steve Scherf et al.
# Submitted via: ExactAudioCopy v0.95b3
#
DISCID=9a09090b
DTITLE=John Platania - Blues, Waltzes and Badland Borders
DYEAR=2007
DGENRE=Blues
TTITLE0=01 Runnin' With the Dogs
TTITLE1=02 Child Heroes
TTITLE2=03 East Texas Waltz
TTITLE3=04 Song for the Quiet One
TTITLE4=05 The Highlander's Blues
TTITLE5=06 I Will Be Standing
TTITLE6=07 Texas Sexy Ways
TTITLE7=08 Train Wreck
TTITLE8=09 Tribute
TTITLE9=10 Suite 35
TTITLE10=11 In Memory of Zapata
EXTD=
EXTT0=
EXTT1=
EXTT2=
EXTT3=
EXTT4=
EXTT5=
EXTT6=
EXTT7=
EXTT8=
EXTT9=
EXTT10=
PLAYORDER=
